<svg width="35" height="35" viewBox="0 0 48 49" fill="none" xmlns="http://www.w3.org/2000/svg">
<path d="M24 49C37.2548 49 48 38.2548 48 25C48 11.7452 37.2548 1 24 1C10.7452 1 0 11.7452 0 25C0 38.2548 10.7452 49 24 49Z" fill="url(#paint0_linear)"/>
<path fill-rule="evenodd" clip-rule="evenodd" d="M39.247 16.3879C39.4842 15.605 39.247 15.0356 38.1964 15.0356H34.7057C33.8245 15.0356 33.4178 15.5338 33.1806 16.0676C33.1806 16.0676 31.3844 20.6228 28.8765 23.5765C28.0631 24.4306 27.6903 24.7153 27.2498 24.7153C27.0125 24.7153 26.7075 24.4306 26.7075 23.6477V16.3523C26.7075 15.427 26.4364 15 25.6908 15H20.2006C19.6583 15 19.3194 15.427 19.3194 15.8541C19.3194 16.7438 20.5734 16.9573 20.7089 19.4484V24.8577C20.7089 26.032 20.5056 26.2455 20.065 26.2455C18.8788 26.2455 15.9981 21.6548 14.2697 16.4235C13.9308 15.3915 13.5919 15 12.7108 15H9.18617C8.16945 15 8 15.4982 8 16.032C8 16.9929 9.18617 21.8327 13.5241 28.2384C16.4048 32.6157 20.5056 34.9644 24.1996 34.9644C26.4364 34.9644 26.7075 34.4306 26.7075 33.5409V30.2313C26.7075 29.1637 26.9109 28.9858 27.6226 28.9858C28.1309 28.9858 29.046 29.2705 31.1133 31.3701C33.4856 33.8612 33.8923 35 35.214 35H38.7047C39.7214 35 40.1959 34.4662 39.9248 33.4342C39.6198 32.4021 38.4675 30.9075 36.9763 29.1281C36.1629 28.1317 34.9429 27.0285 34.5701 26.4947C34.0617 25.7829 34.1973 25.4982 34.5701 24.8577C34.5362 24.8577 38.8064 18.5231 39.247 16.3879Z" fill="white"/>
<defs>
<linearGradient id="paint0_linear" x1="32.002" y1="9.0016" x2="20.002" y2="37" gradientUnits="userSpaceOnUse">
<stop stop-color="#37AEE2"/>
<stop offset="1" stop-color="#1E96C8"/>
</linearGradient>
</defs>
</svg>
